# xmcd
#
# Track frame offsets: 
#        150
#        8720
#        20172
#        35320
#        46485
#        61145
#        78427
#        89930
#        106615
#        117695
#        127545
#        137877
#        153505
#        162690
#        177302
#        193272
#        205712
#        219635
#        225672
#        237067
#        250152
#        263312
#        278070
#        294285
#        300490
#
# Disc length: 4123 seconds
#
# Revision: 0
# Processed by: cddbd v1.4PL0 Copyright (c) Steve Scherf et al.
# Submitted via: ExactAudioCopy v0.90a11
#
DISCID=58101919
DTITLE=Hoyt Axton - The A&M Years [CD2]
DYEAR=1900
DGENRE=
TTITLE0=I Love To Sing
TTITLE1=Southbound
TTITLE2=Lion In The Winter
TTITLE3=Blind Fiddler
TTITLE4=Pride Of Man
TTITLE5=Greensleeves
TTITLE6=No No Song
TTITLE7=Nashville
TTITLE8=Speed Trap (Out Of State Cars)
TTITLE9=Roll Your Own
TTITLE10=Whiskey
TTITLE11=In A Young Girl's Mind
TTITLE12=Sometimes It's Easy
TTITLE13=Idol Of The Band
TTITLE14=Evangelina
TTITLE15=Flash Of Fire
TTITLE16=Lay, Lady, Lay
TTITLE17=Jealous Man
TTITLE18=Paid In Advance
TTITLE19=An Old Greyhound
TTITLE20=A Stone And A Feather
TTITLE21=Gypsy Moth
TTITLE22=Beyond These Walls
TTITLE23=Penny Whistle Song
TTITLE24=The Devil
EXTD=
EXTT0=
EXTT1=
EXTT2=
EXTT3=
EXTT4=
EXTT5=
EXTT6=
EXTT7=
EXTT8=
EXTT9=
EXTT10=
EXTT11=
EXTT12=
EXTT13=
EXTT14=
EXTT15=
EXTT16=
EXTT17=
EXTT18=
EXTT19=
EXTT20=
EXTT21=
EXTT22=
EXTT23=
EXTT24=
PLAYORDER=
